<svg viewBox="0 0 24 24" fill="none" xmlns="http://www.w3.org/2000/svg">
    <path d="M7.98747 18.3375L8.25534 17.9153C8.12841 17.8348 7.97197 17.8156 7.82936 17.8632L7.98747 18.3375ZM4.5 19.5L4.02566 19.3419C3.96577 19.5216 4.01253 19.7196 4.14645 19.8536C4.28036 19.9875 4.47845 20.0342 4.65811 19.9743L4.5 19.5ZM5.66249 16.0125L6.13683 16.1706C6.18437 16.028 6.16522 15.8716 6.08468 15.7447L5.66249 16.0125ZM12 20C16.4183 20 20 16.4183 20 12H19C19 15.866 15.866 19 12 19V20ZM7.71961 18.7597C8.95766 19.5452 10.4265 20 12 20V19C10.6217 19 9.33794 18.6022 8.25534 17.9153L7.71961 18.7597ZM7.82936 17.8632L4.34189 19.0257L4.65811 19.9743L8.14559 18.8119L7.82936 17.8632ZM4.97434 19.6581L6.13683 16.1706L5.18815 15.8544L4.02566 19.3419L4.97434 19.6581ZM4 12C4 13.5735 4.45479 15.0423 5.2403 16.2804L6.08468 15.7447C5.39781 14.6621 5 13.3783 5 12H4ZM12 4C7.58172 4 4 7.58172 4 12H5C5 8.13401 8.13401 5 12 5V4ZM20 12C20 7.58172 16.4183 4 12 4V5C15.866 5 19 8.13401 19 12H20Z" fill="#8F8F8F"></path>
    <path d="M16 12H16.002V12.002H16V12Z" stroke="#8F8F8F" stroke-width="2" stroke-linecap="round" stroke-linejoin="round"></path>
    <path d="M12 12H12.002V12.002H12V12Z" stroke="#8F8F8F" stroke-width="2" stroke-linecap="round" stroke-linejoin="round"></path>
    <path d="M8 12H8.002V12.002H8V12Z" stroke="#8F8F8F" stroke-width="2" stroke-linecap="round" stroke-linejoin="round"></path>
</svg>