<svg width="22" height="22" viewBox="0 0 22 22" fill="none" xmlns="http://www.w3.org/2000/svg">
<circle cx="10.8139" cy="10.8139" r="10.8139" fill="url(#paint0_linear_3856_13451)"/>
<g clip-path="url(#clip0_3856_13451)">
<path fill-rule="evenodd" clip-rule="evenodd" d="M10.3581 4.91801C10.6048 4.82573 10.8742 4.8137 11.1281 4.88363L11.2356 4.91801L15.6106 6.55863C15.8325 6.64181 16.0261 6.78632 16.1689 6.97532C16.3118 7.16432 16.398 7.39002 16.4175 7.62613L16.4219 7.72926V11.0811C16.4219 12.0939 16.1484 13.0879 15.6304 13.9581C15.1124 14.8284 14.369 15.5426 13.4788 16.0255L13.3125 16.1124L11.2162 17.1605C11.1008 17.2181 10.9748 17.2513 10.8459 17.258C10.7171 17.2647 10.5883 17.2447 10.4675 17.1993L10.3775 17.1605L8.28125 16.1124C7.37538 15.6594 6.60861 14.9703 6.06188 14.1178C5.51515 13.2652 5.20874 12.2809 5.175 11.2686L5.17188 11.0811V7.72926C5.17188 7.49246 5.23914 7.26054 5.36583 7.06049C5.49253 6.86044 5.67343 6.70049 5.8875 6.59926L5.98312 6.55863L10.3581 4.91801ZM12.9425 8.93926L10.0687 11.813L8.96375 10.708C8.84647 10.5908 8.68745 10.525 8.52165 10.5251C8.35586 10.5251 8.19688 10.591 8.07969 10.7083C7.9625 10.8256 7.89669 10.9846 7.89675 11.1504C7.89681 11.3162 7.96272 11.4752 8.08 11.5924L9.5825 13.0949C9.64634 13.1588 9.72215 13.2094 9.80558 13.244C9.88901 13.2786 9.97844 13.2964 10.0687 13.2964C10.1591 13.2964 10.2485 13.2786 10.3319 13.244C10.4154 13.2094 10.4912 13.1588 10.555 13.0949L13.8263 9.82301C13.8859 9.76535 13.9336 9.69639 13.9663 9.62014C13.9991 9.54388 14.0163 9.46187 14.017 9.37888C14.0178 9.2959 14.0019 9.2136 13.9705 9.13679C13.9391 9.05998 13.8927 8.99019 13.834 8.93151C13.7753 8.87283 13.7055 8.82642 13.6287 8.79499C13.5519 8.76357 13.4696 8.74775 13.3866 8.74848C13.3036 8.7492 13.2216 8.76644 13.1454 8.79919C13.0691 8.83195 13.0002 8.87956 12.9425 8.93926Z" fill="black"/>
</g>
<defs>
<linearGradient id="paint0_linear_3856_13451" x1="12.2886" y1="24.6318" x2="-9.84834" y2="13.3221" gradientUnits="userSpaceOnUse">
<stop stop-color="#F8ED84"/>
<stop offset="0.4954" stop-color="#F5E0FF"/>
<stop offset="1" stop-color="#84FAD5"/>
</linearGradient>
<clipPath id="clip0_3856_13451">
<rect width="15" height="15" fill="white" transform="translate(3.29688 3.54614)"/>
</clipPath>
</defs>
</svg>
